# xmcd
#
# Track frame offsets: 
#        150
#        14392
#        29713
#        41644
#        63903
#        79892
#        97686
#        114094
#        135343
#        155166
#        173011
#        193398
#
# Disc length: 2975 seconds
#
# Revision: 0
# Processed by: cddbd v1.5.2PL0 Copyright (c) Steve Scherf et al.
# Submitted via: ExactAudioCopyFreeDBPlugin 1.0
#
DISCID=960b9d0c
DTITLE=Damnwells - No One Listens to the Band Anymore
DYEAR=2011
DGENRE=Country-Rock
TTITLE0=No One Listens to the Band Anymore
TTITLE1=Feast of Hearts
TTITLE2=She Goes Around
TTITLE3=Werewolves
TTITLE4=The Great Unknown
TTITLE5=Let's Be Civilized
TTITLE6=Death Defier
TTITLE7=Last Day of the New Age
TTITLE8=The Monster
TTITLE9=The Experts
TTITLE10=Sophia
TTITLE11=The Same Way
EXTD=
EXTT0=
EXTT1=
EXTT2=
EXTT3=
EXTT4=
EXTT5=
EXTT6=
EXTT7=
EXTT8=
EXTT9=
EXTT10=
EXTT11=
PLAYORDER=
